<svg width="20" height="20" viewBox="0 0 20 20" fill="none" xmlns="http://www.w3.org/2000/svg">
<path fill-rule="evenodd" clip-rule="evenodd" d="M9.99984 16.6667C13.6817 16.6667 16.6665 13.6819 16.6665 10C16.6665 6.31812 13.6817 3.33335 9.99984 3.33335C6.31794 3.33335 3.33317 6.31812 3.33317 10C3.33317 13.6819 6.31794 16.6667 9.99984 16.6667ZM9.99984 18.3334C14.6022 18.3334 18.3332 14.6024 18.3332 10C18.3332 5.39765 14.6022 1.66669 9.99984 1.66669C5.39746 1.66669 1.6665 5.39765 1.6665 10C1.6665 14.6024 5.39746 18.3334 9.99984 18.3334Z" fill="#64748B"/>
<path d="M9.99984 5.83335C9.5396 5.83335 9.1665 6.20645 9.1665 6.66669V10.8334C9.1665 11.2936 9.5396 11.6667 9.99984 11.6667H13.3332C13.7934 11.6667 14.1665 11.2936 14.1665 10.8334C14.1665 10.3731 13.7934 10 13.3332 10H10.8332V6.66669C10.8332 6.20645 10.4601 5.83335 9.99984 5.83335Z" fill="#64748B"/>
</svg>
