<svg width="48" height="49" viewBox="0 0 48 49" fill="none" xmlns="http://www.w3.org/2000/svg">
<rect x="0.5" y="0.5" width="47" height="48" rx="23.5" fill="white"/>
<rect x="0.5" y="0.5" width="47" height="48" rx="23.5" stroke="#F0F1F2"/>
<path fill-rule="evenodd" clip-rule="evenodd" d="M19.7286 33.9778C18.9759 32.9941 18.6667 31.73 18.6667 30.466C18.6667 28.015 19.8063 24.4449 24.1674 23.8441C24.8969 23.7436 25.4752 24.3635 25.5947 25.0947C25.8323 26.548 26.4819 27.113 27.2169 27.7522C27.7818 28.2435 28.3972 28.7788 28.9146 29.795C29.5848 31.1114 29.4266 32.5891 28.6109 33.7532C30.6874 32.2984 32 29.8285 32 26.8549C32 23.5306 30.6534 21.0302 28.7299 18.6784C28.7075 18.6989 28.6837 18.726 28.662 18.7602C28.6222 18.8231 28.5958 18.9 28.5934 18.9895C28.5682 19.9561 28.3642 21.1489 27.4591 21.9428C27.0825 22.2732 26.5959 22.4669 26.0639 22.4331C25.5618 22.4012 25.1579 22.1763 24.8753 21.934C24.3314 21.4676 24.0046 20.7514 23.9629 20.0424C23.7839 16.9987 22.9905 15.2347 22.2801 14.2399C21.6421 16.3642 20.2869 18.3195 19.0813 20.0588C18.8887 20.3367 18.6997 20.6095 18.5183 20.8761C17.0559 23.0256 16 24.8786 16 26.8549C16 29.9875 17.4567 32.5611 19.7286 33.9778ZM33.3333 26.8549C33.3333 32.3664 29.3333 36.5 24 36.5C18.6667 36.5 14.6667 32.3664 14.6667 26.8549C14.6667 24.0991 16.3333 21.6879 18 19.2766C19.2754 17.4313 20.5509 15.586 21.0794 13.5863C21.3192 12.6791 22.1953 12.1229 22.8256 12.8013C23.8489 13.9026 25.0621 16.0212 25.294 19.9641C25.3386 20.7237 26.0185 21.4329 26.5799 20.9405C27.0491 20.5289 27.2377 19.8275 27.2605 18.9546C27.2962 17.5919 28.8413 16.7168 29.6966 17.7546C31.7612 20.2596 33.3333 23.0698 33.3333 26.8549ZM24.1323 34.5C22.4113 34.5 21.4463 33.9472 20.8875 33.2913C20.2962 32.5973 20 31.599 20 30.466C20 29.4199 20.2475 28.1887 20.8988 27.1891C21.5055 26.2579 22.5094 25.4476 24.2355 25.1815L24.2395 25.1891C24.2572 25.2232 24.2715 25.2649 24.2788 25.3098C24.409 26.1059 24.6506 26.7473 24.9945 27.2944C25.3322 27.8314 25.7324 28.218 26.0776 28.5263C26.1729 28.6115 26.2647 28.6917 26.3531 28.7691C26.9052 29.252 27.3319 29.6252 27.7264 30.4C28.1672 31.2657 28.0663 32.2395 27.4859 33.0342C26.9075 33.8264 25.7921 34.5 24.1323 34.5Z" fill="#0C172F"/>
</svg>
