<svg width="41" height="39" viewBox="0 0 41 39" fill="none" xmlns="http://www.w3.org/2000/svg">
<rect x="0.726441" y="1.45225" width="38.8382" height="36.8465" rx="18.4232" stroke="white" stroke-opacity="0.2" stroke-width="0.995851"/>
<g clip-path="url(#clip0_10_1493)">
<path fill-rule="evenodd" clip-rule="evenodd" d="M18.1025 15.9924C18.1025 14.8032 19.0666 13.8391 20.2558 13.8391C21.4451 13.8391 22.4092 14.8032 22.4092 15.9924C22.4092 17.1817 21.4451 18.1458 20.2558 18.1458C19.0666 18.1458 18.1025 17.1817 18.1025 15.9924ZM20.2558 12.7801C18.4817 12.7801 17.0435 14.2183 17.0435 15.9924C17.0435 17.7666 18.4817 19.2048 20.2558 19.2048C22.03 19.2048 23.4682 17.7666 23.4682 15.9924C23.4682 14.2183 22.03 12.7801 20.2558 12.7801ZM14.996 24.6058C14.996 22.6447 16.6594 20.9698 18.7026 20.9698H21.8796C23.9287 20.9698 25.5862 22.5799 25.5862 24.6058V25.2086C25.5298 25.6163 25.2224 25.9119 24.8449 25.9119H15.6667C15.3032 25.9119 14.996 25.6346 14.996 25.2412V24.6058ZM18.7026 19.9108C16.0861 19.9108 13.937 22.0483 13.937 24.6058V25.2412C13.937 26.2598 14.7595 26.9709 15.6667 26.9709H24.8449C25.8715 26.9709 26.5476 26.1496 26.642 25.2997C26.6442 25.2803 26.6452 25.2607 26.6452 25.2412V24.6058C26.6452 21.9719 24.4903 19.9108 21.8796 19.9108H18.7026Z" fill="white"/>
</g>
<defs>
<clipPath id="clip0_10_1493">
<rect width="14.9378" height="14.9378" fill="white" transform="translate(12.6768 12.4066)"/>
</clipPath>
</defs>
</svg>
