<svg width="24" height="25" viewBox="0 0 24 25" fill="none" xmlns="http://www.w3.org/2000/svg">
<path fill-rule="evenodd" clip-rule="evenodd" d="M5.5 5.5H6.5V5C6.5 4.17157 7.17157 3.5 8 3.5C8.82843 3.5 9.5 4.17157 9.5 5V5.5H12.5V5C12.5 4.17157 13.1716 3.5 14 3.5C14.8284 3.5 15.5 4.17157 15.5 5V5.5H16.5C17.8807 5.5 19 6.61929 19 8V10.6429C19 10.919 18.7761 11.1429 18.5 11.1429C18.2239 11.1429 18 10.919 18 10.6429V10.5H4V17C4 17.8284 4.67157 18.5 5.5 18.5H9.5C9.77614 18.5 10 18.7239 10 19C10 19.2761 9.77614 19.5 9.5 19.5H5.5C4.11929 19.5 3 18.3807 3 17V8C3 6.61929 4.11929 5.5 5.5 5.5ZM7.5 5V7C7.5 7.27614 7.72386 7.5 8 7.5C8.27614 7.5 8.5 7.27614 8.5 7V5C8.5 4.72386 8.27614 4.5 8 4.5C7.72386 4.5 7.5 4.72386 7.5 5ZM14.5 5C14.5 4.72386 14.2761 4.5 14 4.5C13.7239 4.5 13.5 4.72386 13.5 5V7C13.5 7.27614 13.7239 7.5 14 7.5C14.2761 7.5 14.5 7.27614 14.5 7V5ZM12.5 6.5V7C12.5 7.82843 13.1716 8.5 14 8.5C14.8284 8.5 15.5 7.82843 15.5 7V6.5H16.5C17.3284 6.5 18 7.17157 18 8V9.5H4V8C4 7.17157 4.67157 6.5 5.5 6.5H6.5V7C6.5 7.82843 7.17157 8.5 8 8.5C8.82843 8.5 9.5 7.82843 9.5 7V6.5H12.5Z" fill="#45474D"/>
<path d="M16 17C15.7239 17 15.5 16.7761 15.5 16.5V14C15.5 13.7239 15.7239 13.5 16 13.5C16.2761 13.5 16.5 13.7239 16.5 14V16H17.5C17.7761 16 18 16.2239 18 16.5C18 16.7761 17.7761 17 17.5 17H16Z" fill="#45474D"/>
<path fill-rule="evenodd" clip-rule="evenodd" d="M16 21.5C18.7614 21.5 21 19.2614 21 16.5C21 13.7386 18.7614 11.5 16 11.5C13.2386 11.5 11 13.7386 11 16.5C11 19.2614 13.2386 21.5 16 21.5ZM16 20.5C18.2091 20.5 20 18.7091 20 16.5C20 14.2909 18.2091 12.5 16 12.5C13.7909 12.5 12 14.2909 12 16.5C12 18.7091 13.7909 20.5 16 20.5Z" fill="#45474D"/>
</svg>
