<svg width="10" height="10" viewBox="0 0 10 10" fill="none" xmlns="http://www.w3.org/2000/svg">
<path d="M5.61383 10C8.32112 10 10 8.89801 10 7.13808C10 5.81407 8.73506 4.8236 7.01247 4.71918V4.66342C7.67215 4.58509 8.27462 4.32342 8.71118 3.9256C9.14774 3.52778 9.38964 3.02002 9.39324 2.49392C9.39324 0.963098 7.89947 0 5.5187 0H0V10H5.61383ZM2.65458 1.55921H4.83481C6.07276 1.55921 6.78493 2.01642 6.78493 2.82036C6.78493 3.66586 5.97635 4.15856 4.561 4.15856H2.65458V1.55819V1.55921ZM2.65458 8.44079V5.53731H4.87852C6.44299 5.53731 7.29528 6.03609 7.29528 6.97182C7.29528 7.92782 6.4687 8.44079 4.94022 8.44079H2.6533H2.65458Z" fill="#64748B"/>
</svg>
