<svg width="10" height="10" viewBox="0 0 10 10" fill="none" xmlns="http://www.w3.org/2000/svg">
<path d="M9.875 8.96739H0.125C0.05625 8.96739 0 9.01359 0 9.07065V9.89674C0 9.9538 0.05625 10 0.125 10H9.875C9.94375 10 10 9.9538 10 9.89674V9.07065C10 9.01359 9.94375 8.96739 9.875 8.96739ZM5 7.93478C6.08437 7.93478 7.10312 7.56658 7.87187 6.89946C8.64062 6.23234 9.0625 5.34511 9.0625 4.40217V0.163043C9.0625 0.0733696 8.97812 0 8.875 0H7.9375C7.83437 0 7.75 0.0733696 7.75 0.163043V4.40217C7.75 5.72011 6.51562 6.79348 5 6.79348C3.48438 6.79348 2.25 5.72011 2.25 4.40217V0.163043C2.25 0.0733696 2.16563 0 2.0625 0H1.125C1.02188 0 0.9375 0.0733696 0.9375 0.163043V4.40217C0.9375 5.34511 1.36094 6.23098 2.12813 6.89946C2.89531 7.56793 3.91563 7.93478 5 7.93478Z" fill="#64748B"/>
</svg>
